<?xml version="1.0" encoding="utf-8"?>
<!-- Generator: Adobe Illustrator 16.0.0, SVG Export Plug-In . SVG Version: 6.00 Build 0)  -->
<!DOCTYPE svg PUBLIC "-//W3C//DTD SVG 1.1//EN" "http://www.w3.org/Graphics/SVG/1.1/DTD/svg11.dtd">
<svg version="1.1" id="Capa_1" xmlns="http://www.w3.org/2000/svg" xmlns:xlink="http://www.w3.org/1999/xlink" x="0px" y="0px"
	 width="45.478px" height="45.478px" viewBox="0 0 45.478 45.478" enable-background="new 0 0 45.478 45.478" xml:space="preserve">
<path fill="#FFFFFF" d="M22.056,0h1.366c5.582,0,10.87,2.373,15.864,7.117c3.511,4.26,5.442,8.116,5.795,11.568
	c0.265,1.63,0.396,2.666,0.396,3.106v1.873c0,3.026-1.028,6.53-3.085,10.51c-2.996,4.906-7.264,8.314-12.801,10.224
	c-2.807,0.719-5.002,1.08-6.589,1.08h-0.528c-5.803,0-11.187-2.335-16.151-7.007C2.107,33.8,0,28.373,0,22.188v-0.265
	c0-0.206,0.044-0.382,0.132-0.529c0-0.103-0.044-0.154-0.132-0.154c0.573-4.377,1.74-7.917,3.503-10.62
	c2.791-4.539,7.096-7.771,12.912-9.695C18.589,0.309,20.47,0,22.056,0z M18.971,14.521l0.133,4.165c0,0.132-0.133,0.272-0.396,0.418
	h-2.292v4.693h2.292c0.132,0,0.264,0.14,0.396,0.418v11.568l0.065,0.815h4.781V24.083c0.029-0.19,0.118-0.286,0.265-0.286h3.9
	c0.176,0,0.403-1.477,0.683-4.429v-0.265h-4.583c-0.176,0-0.265-0.088-0.265-0.264V15.6c0-1.38,0.809-2.145,2.424-2.292h2.688V9.276
	c0-0.264-0.94-0.396-2.82-0.396H25.56c-3.1,0-5.12,1.161-6.06,3.481C19.323,12.846,19.147,13.566,18.971,14.521z"/>
</svg>
