<svg width="45.478" height="45.478" xmlns="http://www.w3.org/2000/svg">

 <g>
  <title>background</title>
  <rect fill="none" id="canvas_background" height="402" width="582" y="-1" x="-1"/>
 </g>
 <g>
  <title>Layer 1</title>
  <path id="svg_1" d="m22.056,0l1.366,0c5.582,0 10.87,2.373 15.864,7.117c3.511,4.26 5.442,8.116 5.795,11.568c0.265,1.63 0.396,2.666 0.396,3.106l0,1.873c0,3.026 -1.028,6.53 -3.085,10.51c-2.996,4.906 -7.264,8.314 -12.801,10.224c-2.807,0.719 -5.002,1.08 -6.589,1.08l-0.528,0c-5.803,0 -11.187,-2.335 -16.151,-7.007c-4.216,-4.671 -6.323,-10.098 -6.323,-16.283l0,-0.265c0,-0.206 0.044,-0.382 0.132,-0.529c0,-0.103 -0.044,-0.154 -0.132,-0.154c0.573,-4.377 1.74,-7.917 3.503,-10.62c2.791,-4.539 7.096,-7.771 12.912,-9.695c2.174,-0.616 4.055,-0.925 5.641,-0.925zm-3.085,14.521l0.133,4.165c0,0.132 -0.133,0.272 -0.396,0.418l-2.292,0l0,4.693l2.292,0c0.132,0 0.264,0.14 0.396,0.418l0,11.568l0.065,0.815l4.781,0l0,-12.515c0.029,-0.19 0.118,-0.286 0.265,-0.286l3.9,0c0.176,0 0.403,-1.477 0.683,-4.429l0,-0.265l-4.583,0c-0.176,0 -0.265,-0.088 -0.265,-0.264l0,-3.239c0,-1.38 0.809,-2.145 2.424,-2.292l2.688,0l0,-4.032c0,-0.264 -0.94,-0.396 -2.82,-0.396l-0.682,0c-3.1,0 -5.12,1.161 -6.06,3.481c-0.177,0.485 -0.353,1.205 -0.529,2.16z" fill="#0f496d"/>
 </g>
</svg>