<svg width="45.456" height="45.323" xmlns="http://www.w3.org/2000/svg">

 <g>
  <title>background</title>
  <rect fill="none" id="canvas_background" height="402" width="582" y="-1" x="-1"/>
 </g>
 <g>
  <title>Layer 1</title>
  <path id="svg_1" d="m21.108,0l3.239,0c3.466,0 7.41,1.432 11.832,4.296c3.334,2.6 5.751,5.604 7.249,9.012c1.352,3.247 2.027,5.986 2.027,8.219l0,1.873c0,5.023 -2.064,10.003 -6.191,14.939c-4.789,4.656 -10.35,6.984 -16.68,6.984c-7.903,0 -14.359,-3.68 -19.368,-11.039c-2.144,-3.966 -3.216,-7.866 -3.216,-11.7c0,-6.316 2.6,-12.008 7.8,-17.076c4.847,-3.672 9.283,-5.508 13.308,-5.508zm-10.488,19.632l0,7.007c0,3.819 1.212,6.368 3.636,7.646c1.087,0.617 4.583,0.845 10.488,0.683c4.523,0 7.124,-0.492 7.8,-1.476c1.527,-1.219 2.291,-3.239 2.291,-6.059l0,-9.013c0,-3.555 -1.256,-5.883 -3.768,-6.984l-1.675,-0.551l-1.696,-0.132l-9.805,0c-3.496,0 -5.832,1.704 -7.007,5.112c-0.176,1.042 -0.264,2.298 -0.264,3.767zm7.668,-6.72l9.408,0c3.408,0 5.112,1.792 5.112,5.376l0,9.541c-0.456,3.32 -1.844,4.979 -4.165,4.979l-3.899,0c-1.822,0 -3.746,0.044 -5.773,0.132c-3.379,0 -5.354,-1.072 -5.927,-3.217c-0.177,-1.19 -0.265,-2.982 -0.265,-5.376l0,-2.975c0,-4.48 0.36,-6.72 1.08,-6.72c0.72,-1.16 2.196,-1.74 4.429,-1.74zm-1.741,10.091c0,2.894 1.66,4.907 4.98,6.038l2.688,0c3.217,-1.16 4.825,-3.217 4.825,-6.169l0,-0.287c0,-1.674 -0.852,-3.239 -2.556,-4.693c-1.16,-0.808 -2.365,-1.212 -3.613,-1.212l-0.132,0c-2.776,0 -4.708,1.433 -5.795,4.297c-0.147,0.19 -0.279,0.866 -0.397,2.026zm6.192,-4.186l0.132,0c1.938,0 3.239,1.036 3.899,3.106c0.089,0.118 0.133,0.434 0.133,0.948c-0.427,2.776 -1.771,4.164 -4.032,4.164c-1.792,0 -3.093,-0.896 -3.9,-2.688c-0.117,-0.146 -0.213,-0.595 -0.286,-1.344c0.323,-2.791 1.674,-4.186 4.054,-4.186zm5.09,-2.27c0.396,0.896 0.896,1.344 1.498,1.344c0.602,0 1.094,-0.448 1.476,-1.344c-0.205,-1.087 -0.749,-1.631 -1.63,-1.631c-0.897,0.28 -1.344,0.824 -1.344,1.631z" fill="#0f496d"/>
 </g>
</svg>