<?xml version="1.0" encoding="utf-8"?>
<!-- Generator: Adobe Illustrator 16.0.0, SVG Export Plug-In . SVG Version: 6.00 Build 0)  -->
<!DOCTYPE svg PUBLIC "-//W3C//DTD SVG 1.1//EN" "http://www.w3.org/Graphics/SVG/1.1/DTD/svg11.dtd">
<svg version="1.1" id="Capa_1" xmlns="http://www.w3.org/2000/svg" xmlns:xlink="http://www.w3.org/1999/xlink" x="0px" y="0px"
	 width="45.456px" height="45.323px" viewBox="0 0 45.456 45.323" enable-background="new 0 0 45.456 45.323" xml:space="preserve">
<path fill="#FFFFFF" d="M21.108,0h3.239c3.466,0,7.41,1.432,11.832,4.296c3.334,2.6,5.751,5.604,7.249,9.012
	c1.352,3.247,2.027,5.986,2.027,8.219V23.4c0,5.023-2.064,10.003-6.191,14.939c-4.789,4.656-10.35,6.984-16.68,6.984
	c-7.903,0-14.359-3.68-19.368-11.039C1.072,30.318,0,26.418,0,22.584c0-6.316,2.6-12.008,7.8-17.076C12.647,1.836,17.083,0,21.108,0
	z M10.62,19.632v7.007c0,3.819,1.212,6.368,3.636,7.646c1.087,0.617,4.583,0.845,10.488,0.683c4.523,0,7.124-0.492,7.8-1.476
	c1.527-1.219,2.291-3.239,2.291-6.059V18.42c0-3.555-1.256-5.883-3.768-6.984l-1.675-0.551l-1.696-0.132h-9.805
	c-3.496,0-5.832,1.704-7.007,5.112C10.708,16.907,10.62,18.163,10.62,19.632z M18.288,12.912h9.408c3.408,0,5.112,1.792,5.112,5.376
	v9.541c-0.456,3.32-1.844,4.979-4.165,4.979h-3.899c-1.822,0-3.746,0.044-5.773,0.132c-3.379,0-5.354-1.072-5.927-3.217
	c-0.177-1.19-0.265-2.982-0.265-5.376v-2.975c0-4.48,0.36-6.72,1.08-6.72C14.579,13.492,16.055,12.912,18.288,12.912z
	 M16.547,23.003c0,2.894,1.66,4.907,4.98,6.038h2.688c3.217-1.16,4.825-3.217,4.825-6.169v-0.287c0-1.674-0.852-3.239-2.556-4.693
	c-1.16-0.808-2.365-1.212-3.613-1.212h-0.132c-2.776,0-4.708,1.433-5.795,4.297C16.797,21.167,16.665,21.843,16.547,23.003z
	 M22.739,18.817h0.132c1.938,0,3.239,1.036,3.899,3.106c0.089,0.118,0.133,0.434,0.133,0.948c-0.427,2.776-1.771,4.164-4.032,4.164
	c-1.792,0-3.093-0.896-3.9-2.688c-0.117-0.146-0.213-0.595-0.286-1.344C19.008,20.212,20.359,18.817,22.739,18.817z M27.829,16.547
	c0.396,0.896,0.896,1.344,1.498,1.344c0.602,0,1.094-0.448,1.476-1.344c-0.205-1.087-0.749-1.631-1.63-1.631
	C28.276,15.196,27.829,15.74,27.829,16.547z"/>
</svg>
