<?xml version="1.0" encoding="UTF-8" standalone="no" ?>
<!DOCTYPE svg PUBLIC "-//W3C//DTD SVG 1.1//EN" "http://www.w3.org/Graphics/SVG/1.1/DTD/svg11.dtd">
<svg xmlns="http://www.w3.org/2000/svg" xmlns:xlink="http://www.w3.org/1999/xlink" version="1.1" width="128" height="128" viewBox="5.17 0 128 128" xml:space="preserve">
<desc>Created with Fabric.js 4.2.0</desc>
<defs>
</defs>
<rect x="0" y="0" width="100%" height="100%" fill="transparent"></rect>
<g transform="matrix(Infinity NaN NaN Infinity 0 0)" id="ce150da3-d58f-430a-b5c0-20affa78bf2a"  >
</g>
<g transform="matrix(1 0 0 1 64 64)" id="8634349b-9319-47e1-98bd-c8c0acc2057a"  >
<rect style="stroke: none; stroke-width: 1; stroke-dasharray: none; stroke-linecap: butt; stroke-dashoffset: 0; stroke-linejoin: miter; stroke-miterlimit: 4; fill: rgb(255,255,255); fill-rule: nonzero; opacity: 1;" vector-effect="non-scaling-stroke"  x="-64" y="-64" rx="0" ry="0" width="128" height="128" />
</g>
<g transform="matrix(0.71 0 0 0.71 67 64)"  >
<g style="" vector-effect="non-scaling-stroke"   >
		<g transform="matrix(1 0 0 1 -13.75 1.54)"  >
<path style="stroke: none; stroke-width: 1; stroke-dasharray: none; stroke-linecap: butt; stroke-dashoffset: 0; stroke-linejoin: miter; stroke-miterlimit: 4; fill: rgb(42,16,0); fill-rule: evenodd; opacity: 1;" vector-effect="non-scaling-stroke"  transform=" translate(-62.67, -31.95)" d="M 62.618 55.784 C 49.024 55.739 38.313 45.107 38.372 31.708 C 38.429 18.565 49.345 8.04 62.837 8.116 C 76.386 8.190999999999999 87.04 18.819 86.977 32.191 C 86.912 45.285 76.029 55.825 62.618 55.784 z M 81.244 31.938 C 81.246 21.467999999999996 73.07900000000001 13.221999999999998 62.687 13.197 C 52.263 13.173 44.039 21.455 44.035 31.977999999999998 C 44.032999999999994 42.381 52.382999999999996 50.712 62.794 50.69799999999999 C 72.978 50.684 81.243 42.279 81.244 31.938 z" stroke-linecap="round" />
</g>
		<g transform="matrix(1 0 0 1 47.29 1.53)"  >
<path style="stroke: none; stroke-width: 1; stroke-dasharray: none; stroke-linecap: butt; stroke-dashoffset: 0; stroke-linejoin: miter; stroke-miterlimit: 4; fill: rgb(45,74,107); fill-rule: evenodd; opacity: 1;" vector-effect="non-scaling-stroke"  transform=" translate(-123.71, -31.94)" d="M 95.431 27.569 C 98.015 21.323 102.571 16.881999999999998 108.32 13.550999999999998 C 109.29899999999999 12.984999999999998 110.386 12.697 111.511 13.077999999999998 C 112.072 13.265999999999998 112.521 13.056999999999997 112.97999999999999 12.864999999999998 C 120.26799999999999 9.828 127.85699999999999 8.055999999999997 135.725 7.467999999999998 C 138.805 7.237999999999998 141.84699999999998 7.419999999999998 144.822 8.336999999999998 C 147.967 9.304999999999998 149.836 11.396999999999998 150.078 14.663999999999998 C 150.234 16.799999999999997 151.246 18.65 151.64600000000002 20.688 C 151.84300000000002 21.695999999999998 152.03 22.7 151.96 23.727 C 151.847 25.374 151.04000000000002 26.202 149.424 26.374 C 146.511 26.685 145.479 25.712 145.592 22.791999999999998 C 145.65400000000002 21.241 146.032 19.764999999999997 146.55200000000002 18.317999999999998 C 147.895 14.588999999999999 146.08900000000003 11.544999999999998 142.175 10.915 C 138.02800000000002 10.247 133.935 10.77 129.863 11.523 C 124.585 12.5 119.429 13.931999999999999 114.412 15.85 C 114.024 15.998 113.56800000000001 16.09 113.408 16.56 C 112.908 18.012 111.672 18.717 110.476 19.453 C 107.809 21.094 105.326 22.927 103.511 25.548 C 100.5 29.9 100.579 34.448 103.77799999999999 38.668 C 105.556 41.009 107.79499999999999 42.829 110.26499999999999 44.382 C 111.51799999999999 45.168 112.90499999999999 45.782 113.44299999999998 47.358999999999995 C 113.57799999999999 47.75599999999999 114.06799999999998 47.916 114.46599999999998 48.071999999999996 C 122.57899999999998 51.233999999999995 130.933 53.233999999999995 139.7 53.15 C 140.891 53.138 142.069 53.013999999999996 143.22299999999998 52.653999999999996 C 146.172 51.736 147.6 49.044 146.678 46.056 C 146.176 44.431 145.60999999999999 42.82 145.555 41.096 C 145.51600000000002 39.937 145.43 38.638999999999996 146.592 38 C 147.95200000000003 37.251 149.482 37.321 150.913 37.925 C 151.531 38.184999999999995 151.78900000000002 38.821999999999996 151.9 39.482 C 152.098 40.641999999999996 151.916 41.772999999999996 151.653 42.9 C 151.10999999999999 45.251999999999995 150.251 47.503 149.882 49.927 C 149.31900000000002 53.615 146.49800000000002 55.652 142.205 56.211 C 135.92000000000002 57.028999999999996 129.816 55.995 123.74600000000001 54.559999999999995 C 120.055 53.687999999999995 116.46600000000001 52.498999999999995 112.97300000000001 51.023999999999994 C 112.48700000000001 50.81999999999999 111.95200000000001 50.60999999999999 111.49400000000001 50.81499999999999 C 110.25100000000002 51.37099999999999 109.26700000000001 50.79999999999999 108.27500000000002 50.218999999999994 C 103.42900000000002 47.373999999999995 99.18500000000002 43.91499999999999 96.64100000000002 38.72999999999999 C 96.30400000000002 38.04599999999999 95.85700000000001 37.41599999999999 95.46100000000001 36.76099999999999 C 95.452 33.697 95.44 30.634 95.431 27.569 z" stroke-linecap="round" />
</g>
		<g transform="matrix(1 0 0 1 -28.26 0)"  >
<path style="stroke: none; stroke-width: 1; stroke-dasharray: none; stroke-linecap: butt; stroke-dashoffset: 0; stroke-linejoin: miter; stroke-miterlimit: 4; fill: rgb(45,74,107); fill-rule: evenodd; opacity: 1;" vector-effect="non-scaling-stroke"  transform=" translate(-48.16, -30.41)" d="M 95.431 27.569 C 95.441 30.633 95.452 33.697 95.463 36.762 C 94.29599999999999 36.785000000000004 93.17699999999999 36.53 92.109 36.096000000000004 C 91.27499999999999 35.756 91.023 36.079 90.88199999999999 36.873000000000005 C 88.84 48.266 79.92 57.413 68.632 59.721 C 55.185 62.468999999999994 42.166000000000004 55.997 36.230000000000004 43.589999999999996 C 33.651 38.205999999999996 31.761000000000003 32.55799999999999 29.882000000000005 26.904999999999998 C 29.741000000000007 26.484999999999996 29.736000000000004 25.984999999999996 29.193000000000005 25.534 C 29.193000000000005 26.070999999999998 29.193000000000005 26.465 29.193000000000005 26.858999999999998 C 29.193000000000005 37.385999999999996 29.195000000000004 47.914 29.195000000000004 58.441 C 29.195000000000004 60.247 28.998000000000005 60.458000000000006 27.246000000000002 60.462 C 23.835 60.468 20.426000000000002 60.470000000000006 17.017000000000003 60.467000000000006 C 15.170000000000003 60.46600000000001 14.951000000000004 60.25300000000001 14.951000000000004 58.415000000000006 C 14.947000000000005 45.544000000000004 14.933000000000003 32.673 14.976000000000004 19.800000000000004 C 14.982000000000005 18.548000000000005 14.744000000000005 18.089000000000006 13.385000000000005 18.165000000000003 C 10.921000000000005 18.302000000000003 8.443000000000005 18.240000000000002 5.970000000000005 18.236000000000004 C 4.550000000000005 18.232000000000003 4.2450000000000045 17.912000000000003 4.228000000000005 16.514000000000003 C 4.220000000000005 16.002000000000002 4.193000000000005 15.488000000000003 4.237000000000005 14.980000000000002 C 4.384000000000006 13.281000000000002 4.109000000000005 11.942000000000002 2.6170000000000053 10.672000000000002 C 0.415 8.804 0.354 5.382 2.038 2.968 C 3.651 0.652 6.897 -0.3 9.435 0.797 C 12.197000000000001 1.9889999999999999 13.674 4.803999999999999 13.136000000000001 7.778 C 13.054 8.232999999999999 12.727 8.639999999999999 12.865 9.135 C 12.581 9.496 12.299 9.857 12.013 10.218 C 10.919 11.61 9.484 12.526 7.744 12.647 C 6.422 12.739 6.229 13.225 6.656 14.297 C 6.38 15.48 6.723 15.955 8.052999999999999 15.887 C 10.431999999999999 15.766 12.823999999999998 15.838000000000001 15.213 15.832 C 17.009999999999998 15.827 17.279 16.092000000000002 17.279 17.894000000000002 C 17.283 30.686 17.283 43.477000000000004 17.287 56.268 C 17.291 58.411 17.141 58.073 19.148 58.09 C 21.281 58.109 23.414 58.041000000000004 25.543 58.117000000000004 C 26.588 58.154 26.897 57.865 26.895 56.785000000000004 C 26.857 43.865 26.87 30.946000000000005 26.87 18.027 C 26.87 17.685000000000002 26.878 17.344 26.872 17.004 C 26.86 16.328000000000003 27.108 15.828000000000001 27.823 15.704 C 28.604 15.566 28.997 15.993 29.21 16.695 C 30.053 19.506 30.849 22.334 31.773 25.119 C 34.109 32.138999999999996 36.215 39.268 40.051 45.671 C 42.526 49.799 46.028000000000006 52.942 50.334 55.103 C 65.70100000000001 62.814 83.87700000000001 54.512 88.135 38.571 C 88.60600000000001 36.809999999999995 88.95100000000001 35.034 88.84100000000001 33.161 C 88.71100000000001 30.962000000000003 90.24600000000001 29.704 91.923 28.673000000000002 C 92.986 28.02 94.199 27.743 95.431 27.569 z M 7.104 10.696 C 9.409 10.682 11.315999999999999 8.73 11.27 6.439 C 11.226 4.2 9.306 2.345 7.05 2.356 C 4.798 2.37 2.894 4.264 2.89 6.493 C 2.887 8.813 4.79 10.71 7.104 10.696 z" stroke-linecap="round" />
</g>
		<g transform="matrix(1 0 0 1 -54.37 1.49)"  >
<path style="stroke: none; stroke-width: 1; stroke-dasharray: none; stroke-linecap: butt; stroke-dashoffset: 0; stroke-linejoin: miter; stroke-miterlimit: 4; fill: rgb(42,16,0); fill-rule: evenodd; opacity: 1;" vector-effect="non-scaling-stroke"  transform=" translate(-22.06, -31.89)" d="M 6.656 14.298 C 6.229 13.225999999999999 6.422 12.739 7.744 12.648 C 9.483 12.527 10.919 11.611 12.013 10.219 C 12.298 9.857999999999999 12.58 9.497 12.865 9.136 C 20.705 9.136 28.549 9.157 36.386 9.112 C 37.400000000000006 9.105 37.738 9.362 37.645 10.375 C 37.558 11.347 37.57 12.338000000000001 37.644000000000005 13.313 C 37.70400000000001 14.128 37.406000000000006 14.309000000000001 36.636 14.299000000000001 C 33.142 14.261000000000001 29.645000000000003 14.327000000000002 26.152 14.260000000000002 C 25.105 14.239 24.806 14.490000000000002 24.811 15.574000000000002 C 24.851 28.103 24.813 40.633 24.87 53.161 C 24.875 54.449 24.502000000000002 54.777 23.307000000000002 54.652 C 22.293000000000003 54.548 21.262 54.59 20.242 54.645 C 19.499000000000002 54.684000000000005 19.292 54.400000000000006 19.302 53.689 C 19.337 51.09 19.323 48.49 19.323 45.891 C 19.323 35.791 19.309 25.691999999999997 19.347 15.591999999999999 C 19.35 14.557999999999998 19.125 14.230999999999998 18.035 14.252999999999998 C 14.243 14.333 10.449 14.292 6.656 14.298 z" stroke-linecap="round" />
</g>
		<g transform="matrix(1 0 0 1 -69.35 -23.91)"  >
<path style="stroke: none; stroke-width: 1; stroke-dasharray: none; stroke-linecap: butt; stroke-dashoffset: 0; stroke-linejoin: miter; stroke-miterlimit: 4; fill: rgb(45,74,107); fill-rule: evenodd; opacity: 1;" vector-effect="non-scaling-stroke"  transform=" translate(-7.07, -6.49)" d="M 7.077 9.195 C 5.561 9.189 4.399 8.061 4.384 6.577 C 4.368 5.069 5.605 3.792 7.081 3.787 C 8.563 3.782 9.778 5.05 9.757 6.585 C 9.737 8.094 8.599 9.203 7.077 9.195 z" stroke-linecap="round" />
</g>
</g>
</g>
</svg>