<?xml version="1.0" encoding="utf-8"?>
<!-- Generator: Adobe Illustrator 16.0.0, SVG Export Plug-In . SVG Version: 6.00 Build 0)  -->
<!DOCTYPE svg PUBLIC "-//W3C//DTD SVG 1.1//EN" "http://www.w3.org/Graphics/SVG/1.1/DTD/svg11.dtd">
<svg version="1.1" id="Capa_1" xmlns="http://www.w3.org/2000/svg" xmlns:xlink="http://www.w3.org/1999/xlink" x="0px" y="0px"
	 width="152.847px" height="60.811px" viewBox="0 0 152.847 60.811" enable-background="new 0 0 152.847 60.811"
	 xml:space="preserve">
<g>
	<path fill-rule="evenodd" clip-rule="evenodd" fill="#2A1000" d="M62.618,55.784c-13.594-0.045-24.305-10.677-24.246-24.076
		C38.429,18.565,49.345,8.04,62.837,8.116c13.549,0.075,24.203,10.703,24.14,24.075C86.912,45.285,76.029,55.825,62.618,55.784z
		 M81.244,31.938c0.002-10.47-8.165-18.716-18.557-18.741c-10.424-0.024-18.648,8.258-18.652,18.781
		c-0.002,10.403,8.348,18.734,18.759,18.72C72.978,50.684,81.243,42.279,81.244,31.938z"/>
	<path fill-rule="evenodd" clip-rule="evenodd" fill="#2D4A6B" d="M95.431,27.569c2.584-6.246,7.14-10.687,12.889-14.018
		c0.979-0.566,2.066-0.854,3.191-0.473c0.561,0.188,1.01-0.021,1.469-0.213c7.288-3.037,14.877-4.809,22.745-5.397
		c3.08-0.23,6.122-0.048,9.097,0.869c3.145,0.968,5.014,3.06,5.256,6.327c0.156,2.136,1.168,3.986,1.568,6.024
		c0.197,1.008,0.384,2.012,0.314,3.039c-0.113,1.647-0.92,2.475-2.536,2.647c-2.913,0.311-3.945-0.662-3.832-3.582
		c0.062-1.551,0.44-3.027,0.96-4.474c1.343-3.729-0.463-6.773-4.377-7.403c-4.147-0.668-8.24-0.145-12.312,0.608
		c-5.278,0.977-10.434,2.409-15.451,4.327c-0.388,0.148-0.844,0.24-1.004,0.71c-0.5,1.452-1.736,2.157-2.932,2.893
		c-2.667,1.641-5.15,3.474-6.965,6.095c-3.011,4.352-2.932,8.9,0.267,13.12c1.778,2.341,4.017,4.161,6.487,5.714
		c1.253,0.786,2.64,1.4,3.178,2.977c0.135,0.397,0.625,0.557,1.023,0.713c8.113,3.162,16.467,5.162,25.234,5.078
		c1.191-0.012,2.369-0.136,3.523-0.496c2.949-0.918,4.377-3.61,3.455-6.598c-0.502-1.625-1.068-3.236-1.123-4.96
		c-0.039-1.159-0.125-2.457,1.037-3.096c1.36-0.749,2.89-0.679,4.321-0.075c0.618,0.26,0.876,0.897,0.987,1.557
		c0.198,1.16,0.016,2.291-0.247,3.418c-0.543,2.352-1.402,4.603-1.771,7.027c-0.563,3.688-3.384,5.725-7.677,6.284
		c-6.285,0.818-12.389-0.216-18.459-1.651c-3.691-0.872-7.28-2.061-10.773-3.536c-0.486-0.204-1.021-0.414-1.479-0.209
		c-1.243,0.556-2.227-0.015-3.219-0.596c-4.846-2.845-9.09-6.304-11.634-11.489c-0.337-0.684-0.784-1.314-1.18-1.969
		C95.452,33.697,95.44,30.634,95.431,27.569z"/>
	<path fill-rule="evenodd" clip-rule="evenodd" fill="#2D4A6B" d="M95.431,27.569c0.01,3.064,0.021,6.128,0.032,9.193
		c-1.167,0.023-2.286-0.232-3.354-0.666c-0.834-0.34-1.086-0.017-1.227,0.777C88.84,48.266,79.92,57.413,68.632,59.721
		c-13.447,2.748-26.466-3.724-32.402-16.131c-2.579-5.384-4.469-11.032-6.348-16.685c-0.141-0.42-0.146-0.92-0.689-1.371
		c0,0.537,0,0.931,0,1.325c0,10.527,0.002,21.055,0.002,31.582c0,1.806-0.197,2.017-1.949,2.021
		c-3.411,0.006-6.82,0.008-10.229,0.005c-1.847-0.001-2.066-0.214-2.066-2.052c-0.004-12.871-0.018-25.742,0.025-38.615
		c0.006-1.252-0.232-1.711-1.591-1.635c-2.464,0.137-4.942,0.075-7.415,0.071c-1.42-0.004-1.725-0.324-1.742-1.722
		c-0.008-0.512-0.035-1.026,0.009-1.534c0.147-1.699-0.128-3.038-1.62-4.308C0.415,8.804,0.354,5.382,2.038,2.968
		C3.651,0.652,6.897-0.3,9.435,0.797c2.762,1.192,4.239,4.007,3.701,6.981c-0.082,0.455-0.409,0.862-0.271,1.357
		c-0.284,0.361-0.566,0.722-0.852,1.083c-1.094,1.392-2.529,2.308-4.269,2.429c-1.322,0.092-1.515,0.578-1.088,1.65
		c-0.276,1.183,0.067,1.658,1.397,1.59c2.379-0.121,4.771-0.049,7.16-0.055c1.797-0.005,2.066,0.26,2.066,2.062
		c0.004,12.792,0.004,25.583,0.008,38.374c0.004,2.143-0.146,1.805,1.861,1.822c2.133,0.019,4.266-0.049,6.395,0.027
		c1.045,0.037,1.354-0.252,1.352-1.332c-0.038-12.92-0.025-25.839-0.025-38.758c0-0.342,0.008-0.683,0.002-1.023
		c-0.012-0.676,0.236-1.176,0.951-1.3c0.781-0.138,1.174,0.289,1.387,0.991c0.843,2.811,1.639,5.639,2.563,8.424
		c2.336,7.02,4.442,14.149,8.278,20.552c2.475,4.128,5.977,7.271,10.283,9.432c15.367,7.711,33.543-0.591,37.801-16.532
		c0.471-1.761,0.816-3.537,0.706-5.41c-0.13-2.199,1.405-3.457,3.082-4.488C92.986,28.02,94.199,27.743,95.431,27.569z
		 M7.104,10.696c2.305-0.014,4.212-1.966,4.166-4.257C11.226,4.2,9.306,2.345,7.05,2.356C4.798,2.37,2.894,4.264,2.89,6.493
		C2.887,8.813,4.79,10.71,7.104,10.696z"/>
	<path fill-rule="evenodd" clip-rule="evenodd" fill="#2A1000" d="M6.656,14.298c-0.427-1.072-0.234-1.559,1.088-1.65
		c1.739-0.121,3.175-1.037,4.269-2.429c0.285-0.361,0.567-0.722,0.852-1.083c7.84,0,15.684,0.021,23.521-0.024
		c1.014-0.007,1.352,0.25,1.259,1.263c-0.087,0.972-0.075,1.963-0.001,2.938c0.06,0.815-0.238,0.996-1.008,0.986
		c-3.494-0.038-6.991,0.028-10.484-0.039c-1.047-0.021-1.346,0.23-1.341,1.314c0.04,12.529,0.002,25.059,0.059,37.587
		c0.005,1.288-0.368,1.616-1.563,1.491c-1.014-0.104-2.045-0.062-3.065-0.007c-0.743,0.039-0.95-0.245-0.94-0.956
		c0.035-2.599,0.021-5.199,0.021-7.798c0-10.1-0.014-20.199,0.024-30.299c0.003-1.034-0.222-1.361-1.312-1.339
		C14.243,14.333,10.449,14.292,6.656,14.298z"/>
	<path fill-rule="evenodd" clip-rule="evenodd" fill="#2D4A6B" d="M7.077,9.195C5.561,9.189,4.399,8.061,4.384,6.577
		c-0.016-1.508,1.221-2.785,2.697-2.79C8.563,3.782,9.778,5.05,9.757,6.585C9.737,8.094,8.599,9.203,7.077,9.195z"/>
</g>
</svg>
