<svg width="300" height="176" viewBox="0 0 300 176" fill="none" xmlns="http://www.w3.org/2000/svg">
<g clip-path="url(#clip0)">
<path fill-rule="evenodd" clip-rule="evenodd" d="M187.616 54.5075C189.037 50.8408 190.828 47.821 192.882 44.7146C196.341 39.4835 196.666 40.104 199.52 36.8096C201.67 34.3276 212.752 25.0575 217.303 25.0876C221.073 25.1101 219.319 26.4414 223.579 24.5648C239.249 17.6564 276.304 8.91657 290.149 17.9159C297.202 22.5002 295.972 29.9765 297.023 33.4551C297.58 35.3054 298.388 36.5878 298.919 38.7577C301.185 48.0015 300.337 53.4357 290.83 51.7208C284.509 50.5813 288.111 38.6411 289.51 35.1437C290.949 31.5484 289.768 26.5768 287.468 24.2602C278.039 14.7833 240.244 25.1101 226.421 30.5293C222.655 32.0072 224.215 31.116 222.599 33.9703C220.329 37.9943 210.093 40.2883 203.08 51.3071C192.149 68.4822 207.826 82.4344 218.309 88.5869C226.114 93.1636 220.422 93.3291 226.358 95.6194C229.817 96.9544 233.37 98.2519 237.046 99.4026C247.929 102.814 278.219 109.47 286.989 102.37C289.409 100.41 290.766 94.5175 289.334 90.5876C287.939 86.7554 284.356 75.1988 291.327 74.3715C293.35 74.1308 296.503 73.9991 298.059 75.0484C302.666 78.1547 297.734 90.3093 296.847 93.0207C296.2 95.0026 296.32 97.2477 295.845 99.3011C294.839 103.637 292.707 106.507 290.153 108.169C276.132 117.292 240.012 108.786 223.179 101.385C215.508 98.0112 222.752 107.165 203.252 92.8064C201.237 91.3209 201.255 91.1028 199.52 89.26C196.936 86.5147 195.062 85.1646 192.646 81.0881C192.209 80.351 187.459 71.927 187.365 71.8631C186.868 71.5058 182.863 70.4867 181.606 69.8022C171.62 64.368 178.853 55.9666 187.616 54.5075Z" fill="white"/>
<path d="M170.88 63.1158C170.88 69.603 169.687 75.7216 167.301 81.4642C164.915 87.2105 161.44 92.3138 156.878 96.774C152.311 101.238 147.06 104.679 141.118 107.093C135.175 109.511 129.015 110.719 122.643 110.719C116.27 110.719 110.129 109.511 104.231 107.093C98.3295 104.675 93.0974 101.234 88.5309 96.774C83.9234 92.2686 80.4191 87.1466 78.0143 81.4002C75.6096 75.6577 74.4053 69.5616 74.4053 63.112C74.4053 56.6248 75.6058 50.4986 78.0143 44.7335C80.4228 38.9683 83.9271 33.835 88.5309 29.3297C93.0525 24.9071 98.2771 21.4999 104.201 19.1006C110.121 16.705 116.27 15.5054 122.643 15.5054C129.056 15.5054 135.235 16.705 141.178 19.1006C147.12 21.4962 152.352 24.9071 156.878 29.3297C161.44 33.7936 164.918 38.9082 167.301 44.6733C169.687 50.4385 170.88 56.5872 170.88 63.1158ZM122.643 100.553C127.579 100.553 132.277 99.6133 136.738 97.7329C141.2 95.8526 145.22 93.1148 148.799 89.5196C152.337 85.9657 155.03 81.938 156.881 77.4327C158.733 72.9274 159.66 68.1551 159.66 63.112C159.66 58.0275 158.725 53.195 156.851 48.607C154.981 44.019 152.296 39.9687 148.799 36.4562C145.261 32.9023 141.26 30.1946 136.798 28.3369C132.336 26.4753 127.617 25.5464 122.639 25.5464C117.62 25.5464 112.87 26.4753 108.386 28.3369C103.902 30.1946 99.9339 32.9023 96.4782 36.4562C92.9403 40.0514 90.2476 44.1205 88.3963 48.6672C86.5451 53.2138 85.6213 58.0275 85.6213 63.112C85.6213 68.1551 86.5376 72.9048 88.3664 77.3688C90.1952 81.8327 92.9029 85.883 96.4782 89.5196C100.098 93.1562 104.119 95.9052 108.539 97.763C112.967 99.6246 117.665 100.553 122.643 100.553Z" fill="white"/>
<path d="M187.616 54.5076C187.616 54.5076 178.214 55.0228 174.971 63.1083C171.725 71.1938 187.904 72.7808 187.904 72.7808L187.616 54.5076Z" stroke="white" stroke-width="0.5669" stroke-miterlimit="22.9256"/>
<path fill-rule="evenodd" clip-rule="evenodd" d="M187.616 54.5075C187.616 54.5075 179.702 54.9438 175.891 61.2693C175.334 61.6905 174.971 62.3599 174.971 63.1082C174.41 64.5035 174.429 65.7031 174.844 66.7373C172.952 94.0663 149.865 115.13 122.37 115.13C103.042 115.13 85.1352 104.66 75.9088 87.5302C74.1511 84.2659 72.6252 80.8136 71.204 77.3838C69.5398 73.3637 68.0027 69.2833 66.5404 65.1841C63.8813 57.7492 61.4429 50.2166 59.1391 42.6651C58.0807 39.1902 57.0335 35.6965 56.0537 32.1953C55.7433 31.0784 54.6774 30.3789 53.533 30.5368C52.3923 30.6948 51.5546 31.6613 51.5546 32.8196V115.397H32.4998V33.2408C32.4998 32.6052 32.2754 32.0562 31.8266 31.6086C31.3778 31.1611 30.8318 30.9355 30.1997 30.9355L11.2833 31.0483L11.302 24.5761C11.6124 24.5987 11.9266 24.6175 12.2407 24.6175C18.9987 24.6175 24.4814 19.1081 24.4814 12.3088C24.4777 5.50942 18.9987 0 12.2407 0C5.47896 0 0 5.50942 0 12.3088C0 17.0848 2.70769 21.2216 6.66077 23.2637L6.63459 33.2897C6.63085 34.5495 7.63314 35.5837 8.87479 35.6251C9.03187 35.6552 9.19642 35.6702 9.3722 35.6702L27.9184 35.5574V117.702C27.9184 118.97 28.9469 120.008 30.2109 120.008H53.8471C55.1075 120.008 56.1397 118.973 56.1397 117.702V48.4829C58.0545 54.6053 60.0703 60.7052 62.2282 66.7411C63.7167 70.9117 65.28 75.0635 66.9742 79.1551C68.4552 82.7278 70.0446 86.3193 71.8809 89.7227C81.9076 108.342 101.363 119.737 122.37 119.737C151.13 119.737 175.409 98.5302 179.074 70.4905C182.949 72.2956 187.904 72.7807 187.904 72.7807L187.616 54.5075Z" fill="white"/>
<path d="M14.8586 27.2461C14.6529 27.2461 14.4472 27.2386 14.2415 27.2273C14.0657 27.216 13.9161 27.3552 13.9161 27.5319C13.9161 27.7012 14.0545 27.8403 14.2228 27.8403H36.292C36.4603 27.8403 36.5986 27.9794 36.5986 28.1487V110.992C36.5986 111.161 36.737 111.3 36.9053 111.3H47.1414C47.3097 111.3 47.4481 111.161 47.4481 110.992V28.1524C47.4481 27.9832 47.5865 27.8441 47.7548 27.8441H72.5391C72.7074 27.8441 72.8458 27.7049 72.8458 27.5357V17.8632C72.8458 17.6939 72.7074 17.5548 72.5391 17.5548H27.0581C26.916 17.5548 26.7964 17.6526 26.7627 17.7917C25.4836 23.2146 20.6405 27.2461 14.8586 27.2461Z" fill="white"/>
<path fill-rule="evenodd" clip-rule="evenodd" d="M12.2407 3.94877C16.8296 3.94877 20.5508 7.69066 20.5508 12.305C20.5508 16.9194 16.8296 20.6651 12.2407 20.6651C7.65183 20.6651 3.92689 16.9232 3.92689 12.3088C3.92689 7.69442 7.64809 3.94877 12.2407 3.94877Z" fill="white"/>
<path fill-rule="evenodd" clip-rule="evenodd" d="M12.2407 6.85579C15.2363 6.85579 17.6635 9.29648 17.6635 12.3088C17.6635 15.3211 15.2363 17.7618 12.2407 17.7618C9.24501 17.7618 6.81781 15.3211 6.81781 12.3088C6.81781 9.29648 9.24501 6.85579 12.2407 6.85579Z" fill="white"/>
</g>
<!-- <rect x="1" y="1" width="32" height="32" fill="#0f496d">
  <animate attributeName="fill" values="#5fb4ff;#0f496d;#0f496d" keyTimes="0;0.125;1" dur="0.6666666666666666s" repeatCount="indefinite" begin="0s" calcMode="discrete"></animate>
</rect> -->
<circle cx="88" cy="160" width="32" r="16" fill="white">
  <animate attributeName="fill" values="#155D97;white;#155D97" keyTimes="0;0.5;1" dur="0.6666666666666666s" repeatCount="indefinite" begin="0s" calcMode="discrete"></animate>
</circle>
<circle cx="184" cy="160" width="32" r="8" height="32" fill="white">
  <animate attributeName="fill" values="#155D97;white;#155D97" keyTimes="0;0.5;1" dur="0.6666666666666666s" repeatCount="indefinite" begin="0.16666666666666666s" calcMode="discrete"></animate>
</circle>
<circle cx="222" cy="160" width="32" r="6" height="32" fill="white">
  <animate attributeName="fill" values="#155D97;white;#155D97" keyTimes="0;0.5;1" dur="0.6666666666666666s" repeatCount="indefinite" begin="0.25s" calcMode="discrete"></animate>
</circle>
<circle cx="140" cy="160" width="32" r="12" height="32" fill="white">
  <animate attributeName="fill" values="#155D97;white;#155D97" keyTimes="0;0.5;1" dur="0.6666666666666666s" repeatCount="indefinite" begin="0.08333333333333333s" calcMode="discrete"></animate>
</circle>
<!-- <circle cx="88" cy="160" r="16" fill="white"/>
<circle cx="184" cy="160" r="8" fill="white"/>
<circle cx="222" cy="160" r="6" fill="white"/>
<circle cx="140" cy="160" r="12" fill="white"/> -->
<defs>
<clipPath id="clip0">
<rect width="300" height="120" fill="white"/>
</clipPath>
</defs>
</svg>
