<?xml version="1.0" encoding="utf-8"?>
<!-- Generator: Adobe Illustrator 16.0.0, SVG Export Plug-In . SVG Version: 6.00 Build 0)  -->
<!DOCTYPE svg PUBLIC "-//W3C//DTD SVG 1.1//EN" "http://www.w3.org/Graphics/SVG/1.1/DTD/svg11.dtd">
<svg version="1.1" id="Capa_1" xmlns="http://www.w3.org/2000/svg" xmlns:xlink="http://www.w3.org/1999/xlink" x="0px" y="0px"
	 width="45.456px" height="45.456px" viewBox="0 0 45.456 45.456" enable-background="new 0 0 45.456 45.456" xml:space="preserve">
<path fill="#FFFFFF" d="M22.739,0c8.313,0,14.946,3.9,19.896,11.7c1.88,3.849,2.82,7.345,2.82,10.488v1.477
	c0,3.026-1.028,6.522-3.085,10.488c-2.996,4.921-7.169,8.285-12.515,10.092c-2.63,0.808-5.002,1.212-7.117,1.212
	c-7.198,0-13.346-3.137-18.442-9.409c-2.776-4.392-4.164-8.292-4.164-11.7C0.044,24.348,0,24.259,0,24.083h0.133L0,23.797v-0.793
	C0,14.763,3.672,8.167,11.017,3.217C14.807,1.073,18.714,0,22.739,0z M11.568,26.639v3.217c0,3.672,1.747,5.508,5.243,5.508H28.38
	c3.672,0,5.508-1.608,5.508-4.825v-4.187c0-3.408-1.659-5.112-4.979-5.112h-12.36C13.228,21.241,11.568,23.041,11.568,26.639z
	 M14.389,23.4h3.899c0.133,0,0.265,0.132,0.396,0.397v0.286c0,0.456-0.132,0.72-0.396,0.793h-1.212v7.8
	c0,0.176-0.088,0.265-0.265,0.265h-0.814c-0.265-0.088-0.397-0.353-0.397-0.793v-7.271h-1.079c-0.132,0-0.265-0.132-0.396-0.397
	v-0.815C14.153,23.488,14.241,23.4,14.389,23.4z M16.129,10.092c1.087,3.76,1.631,5.824,1.631,6.191V19.5h1.476v-3.636l1.608-5.772
	H19.5c-0.544,1.939-0.815,3.1-0.815,3.481h-0.396c0-0.367-0.271-1.527-0.815-3.481H16.129z M18.972,25.824h0.132
	c0.528,0.059,0.793,0.191,0.793,0.396v5.244c0,0.176,0.14,0.265,0.419,0.265c0.396-0.162,0.617-0.338,0.661-0.529v-4.98
	c0-0.132,0.132-0.264,0.396-0.396h0.551c0.132,0,0.265,0.132,0.396,0.396v6.456c0,0.176-0.088,0.265-0.265,0.265h-0.683
	c-0.235,0-0.367-0.221-0.396-0.661c-0.809,0.529-1.256,0.793-1.345,0.793c-0.47,0-0.83-0.264-1.079-0.793v-6.06
	C18.553,26.088,18.692,25.956,18.972,25.824z M20.844,13.859c0,0.088,0.045,0.132,0.133,0.132l-0.133,0.661v2.688
	c0,1.616,0.632,2.424,1.896,2.424c1.248-0.147,1.873-0.771,1.873-1.873v-3.636c0-0.911-0.448-1.535-1.345-1.873h-1.079
	C21.292,12.824,20.844,13.316,20.844,13.859z M22.585,13.573h0.286c0.353,0.132,0.529,0.537,0.529,1.212v2.842
	c0,0.617-0.272,0.926-0.815,0.926l-0.396-0.529v-4.032C22.188,13.859,22.32,13.72,22.585,13.573z M23.797,23.4h0.683
	c0.133,0,0.265,0.132,0.396,0.397v2.556h0.133l0.683-0.529h0.396c0.808,0,1.212,0.625,1.212,1.873v3.9
	c-0.088,0.984-0.448,1.476-1.079,1.476c-0.294,0-0.698-0.176-1.212-0.529l-0.529,0.397h-0.551c-0.117,0-0.25-0.132-0.396-0.397
	v-8.879C23.562,23.488,23.649,23.4,23.797,23.4z M24.876,27.3v4.165c0,0.132,0.133,0.272,0.396,0.419h0.419
	c0.177,0,0.265-0.096,0.265-0.287v-3.9l-0.132-0.661h-0.684C24.965,27.065,24.876,27.153,24.876,27.3z M25.824,12.647v6.456
	c0,0.118,0.132,0.25,0.396,0.396H27.3c0.044,0,0.271-0.176,0.684-0.529c0.176,0,0.264,0.176,0.264,0.529h0.926
	c0.19,0,0.286-0.088,0.286-0.264v-6.588h-1.212c0,0.176-0.044,0.265-0.132,0.265l0.132,0.661v3.503c0,0.088-0.044,0.132-0.132,0.132
	l0.132,0.265v0.154c-0.234,0.441-0.418,0.661-0.551,0.661H27.3c-0.176,0-0.265-0.088-0.265-0.264v-5.376H25.824z M30.385,25.691
	c0.999,0,1.587,0.669,1.763,2.005v1.476c0,0.132-0.14,0.272-0.419,0.419h-2.005c0,0.088-0.044,0.22-0.132,0.396
	c0.088,0.617,0.132,1.109,0.132,1.476v0.265l0.661,0.154c0.234,0,0.419-0.5,0.551-1.499h0.793c0.133,0,0.271,0.14,0.419,0.418v0.265
	c-0.206,1.337-0.742,2.005-1.608,2.005h-0.683c-1.073,0-1.609-0.984-1.609-2.952l0.133-0.948l-0.133-0.793
	C28.247,26.588,28.96,25.691,30.385,25.691z M29.724,28.38c0.088,0,0.133,0.044,0.133,0.132c0.176-0.088,0.308-0.132,0.396-0.132
	c0.176,0.088,0.315,0.132,0.418,0.132l0.133-0.264v-0.418c0-0.456-0.14-0.72-0.419-0.793h-0.396
	C29.812,27.036,29.724,27.484,29.724,28.38z"/>
</svg>
