<svg width="45.456" height="45.456" xmlns="http://www.w3.org/2000/svg">

 <g>
  <title>background</title>
  <rect fill="none" id="canvas_background" height="402" width="582" y="-1" x="-1"/>
 </g>
 <g>
  <title>Layer 1</title>
  <path id="svg_1" d="m22.739,0c8.313,0 14.946,3.9 19.896,11.7c1.88,3.849 2.82,7.345 2.82,10.488l0,1.477c0,3.026 -1.028,6.522 -3.085,10.488c-2.996,4.921 -7.169,8.285 -12.515,10.092c-2.63,0.808 -5.002,1.212 -7.117,1.212c-7.198,0 -13.346,-3.137 -18.442,-9.409c-2.776,-4.392 -4.164,-8.292 -4.164,-11.7c-0.088,0 -0.132,-0.089 -0.132,-0.265l0.133,0l-0.133,-0.286l0,-0.793c0,-8.241 3.672,-14.837 11.017,-19.787c3.79,-2.144 7.697,-3.217 11.722,-3.217zm-11.171,26.639l0,3.217c0,3.672 1.747,5.508 5.243,5.508l11.569,0c3.672,0 5.508,-1.608 5.508,-4.825l0,-4.187c0,-3.408 -1.659,-5.112 -4.979,-5.112l-12.36,0c-3.321,0.001 -4.981,1.801 -4.981,5.399zm2.821,-3.239l3.899,0c0.133,0 0.265,0.132 0.396,0.397l0,0.286c0,0.456 -0.132,0.72 -0.396,0.793l-1.212,0l0,7.8c0,0.176 -0.088,0.265 -0.265,0.265l-0.814,0c-0.265,-0.088 -0.397,-0.353 -0.397,-0.793l0,-7.271l-1.079,0c-0.132,0 -0.265,-0.132 -0.396,-0.397l0,-0.815c0.028,-0.177 0.116,-0.265 0.264,-0.265zm1.74,-13.308c1.087,3.76 1.631,5.824 1.631,6.191l0,3.217l1.476,0l0,-3.636l1.608,-5.772l-1.344,0c-0.544,1.939 -0.815,3.1 -0.815,3.481l-0.396,0c0,-0.367 -0.271,-1.527 -0.815,-3.481l-1.345,0zm2.843,15.732l0.132,0c0.528,0.059 0.793,0.191 0.793,0.396l0,5.244c0,0.176 0.14,0.265 0.419,0.265c0.396,-0.162 0.617,-0.338 0.661,-0.529l0,-4.98c0,-0.132 0.132,-0.264 0.396,-0.396l0.551,0c0.132,0 0.265,0.132 0.396,0.396l0,6.456c0,0.176 -0.088,0.265 -0.265,0.265l-0.683,0c-0.235,0 -0.367,-0.221 -0.396,-0.661c-0.809,0.529 -1.256,0.793 -1.345,0.793c-0.47,0 -0.83,-0.264 -1.079,-0.793l0,-6.06c0.001,-0.132 0.14,-0.264 0.42,-0.396zm1.872,-11.965c0,0.088 0.045,0.132 0.133,0.132l-0.133,0.661l0,2.688c0,1.616 0.632,2.424 1.896,2.424c1.248,-0.147 1.873,-0.771 1.873,-1.873l0,-3.636c0,-0.911 -0.448,-1.535 -1.345,-1.873l-1.079,0c-0.897,0.442 -1.345,0.934 -1.345,1.477zm1.741,-0.286l0.286,0c0.353,0.132 0.529,0.537 0.529,1.212l0,2.842c0,0.617 -0.272,0.926 -0.815,0.926l-0.396,-0.529l0,-4.032c-0.001,-0.133 0.131,-0.272 0.396,-0.419zm1.212,9.827l0.683,0c0.133,0 0.265,0.132 0.396,0.397l0,2.556l0.133,0l0.683,-0.529l0.396,0c0.808,0 1.212,0.625 1.212,1.873l0,3.9c-0.088,0.984 -0.448,1.476 -1.079,1.476c-0.294,0 -0.698,-0.176 -1.212,-0.529l-0.529,0.397l-0.551,0c-0.117,0 -0.25,-0.132 -0.396,-0.397l0,-8.879c0.029,-0.177 0.116,-0.265 0.264,-0.265zm1.079,3.9l0,4.165c0,0.132 0.133,0.272 0.396,0.419l0.419,0c0.177,0 0.265,-0.096 0.265,-0.287l0,-3.9l-0.132,-0.661l-0.684,0c-0.175,0.029 -0.264,0.117 -0.264,0.264zm0.948,-14.653l0,6.456c0,0.118 0.132,0.25 0.396,0.396l1.08,0c0.044,0 0.271,-0.176 0.684,-0.529c0.176,0 0.264,0.176 0.264,0.529l0.926,0c0.19,0 0.286,-0.088 0.286,-0.264l0,-6.588l-1.212,0c0,0.176 -0.044,0.265 -0.132,0.265l0.132,0.661l0,3.503c0,0.088 -0.044,0.132 -0.132,0.132l0.132,0.265l0,0.154c-0.234,0.441 -0.418,0.661 -0.551,0.661l-0.397,0c-0.176,0 -0.265,-0.088 -0.265,-0.264l0,-5.376l-1.211,0l0,-0.001zm4.561,13.044c0.999,0 1.587,0.669 1.763,2.005l0,1.476c0,0.132 -0.14,0.272 -0.419,0.419l-2.005,0c0,0.088 -0.044,0.22 -0.132,0.396c0.088,0.617 0.132,1.109 0.132,1.476l0,0.265l0.661,0.154c0.234,0 0.419,-0.5 0.551,-1.499l0.793,0c0.133,0 0.271,0.14 0.419,0.418l0,0.265c-0.206,1.337 -0.742,2.005 -1.608,2.005l-0.683,0c-1.073,0 -1.609,-0.984 -1.609,-2.952l0.133,-0.948l-0.133,-0.793c-0.001,-1.79 0.712,-2.687 2.137,-2.687zm-0.661,2.689c0.088,0 0.133,0.044 0.133,0.132c0.176,-0.088 0.308,-0.132 0.396,-0.132c0.176,0.088 0.315,0.132 0.418,0.132l0.133,-0.264l0,-0.418c0,-0.456 -0.14,-0.72 -0.419,-0.793l-0.396,0c-0.177,-0.001 -0.265,0.447 -0.265,1.343z" fill="#0f496d"/>
 </g>
</svg>